PathFileType	4	(X/Y/Z)	\\Move.snu.ac.kr\motion\Animal\091204_091205_Bird\091205_bird\Project 2\Capture day 2\Session 1\pigeon_008.trc
DataRate	CameraRate	NumFrames	NumMarkers	Units	OrigDataRate	OrigDataStartFrame	OrigNumFrames
240.0	240.0	8	14	mm	240.0	283	3164
Frame#	Time	14MarkersBird:Head			14MarkersBird:C_back			14MarkersBird:Spine			14MarkersBird:L-shoulder			14MarkersBird:L-elbow			14MarkersBird:L-wrist			14MarkersBird:L-hand			14MarkersBird:R-shoulder			14MarkersBird:R-elbow			14MarkersBird:R-Wrist			14MarkersBird:R-hand			14MarkersBird:C_Tail			14MarkersBird:L-Tale			14MarkersBird:R-Tale			
		X1	Y1	Z1	X2	Y2	Z2	X3	Y3	Z3	X4	Y4	Z4	X5	Y5	Z5	X6	Y6	Z6	X7	Y7	Z7	X8	Y8	Z8	X9	Y9	Z9	X10	Y10	Z10	X11	Y11	Z11	X12	Y12	Z12	X13	Y13	Z13	X14	Y14	Z14	

2327	9.692	1713.67688	145.95543	1967.06848	1652.58093	147.52165	1970.79651	1597.72644	138.08321	1981.87170	1677.55139	140.51263	1947.41858	1640.90759	143.33569	1932.63257	1677.66614	145.97423	1909.42078	1684.06335	120.48703	1901.60547	1685.64819	143.50517	1988.90222	1659.39160	155.71983	2010.01733	1700.43201	157.91554	2013.69763	1717.92090	125.06763	2028.35620	1510.32275	50.33204	1999.71277	1550.58398	70.82030	1910.15027	1571.91187	98.42081	2084.37109	
2328	9.696	1730.50195	142.56590	1964.70251	1669.99719	144.34767	1969.18823	1614.83350	135.11127	1980.31482	1694.44580	137.57852	1946.06738	1656.22192	145.16499	1934.98486	1689.81519	151.11180	1907.58899	1688.08582	126.10208	1895.06360	1702.19104	140.86354	1986.24121	1672.72278	156.62962	2003.22375	1713.09888	163.37859	2012.76978	1724.32361	132.90030	2034.39319	1526.68079	47.84541	1996.94263	1566.25195	70.85367	1907.57751	1586.79065	98.65775	2082.60669	
2329	9.700	1747.18469	139.10011	1962.32446	1687.34277	141.21361	1967.38440	1631.80652	131.82919	1978.71838	1711.25000	134.58296	1944.60059	1672.41284	146.06859	1937.66736	1702.94775	155.65388	1907.39368	1692.00415	133.80055	1891.61707	1718.51208	138.19627	1983.40625	1687.01721	156.57584	1995.62378	1725.40295	167.98401	2010.10510	1728.72717	142.83954	2038.76831	1542.72363	45.39797	1993.94812	1583.03210	71.53812	1903.90588	1603.13159	98.54312	2081.22729	
2330	9.704	1763.81104	135.64755	1960.00037	1704.52832	138.05089	1965.47754	1648.79529	128.18024	1977.05139	1727.98450	131.49329	1942.82727	1689.39673	145.96918	1940.21179	1717.08130	159.10699	1908.07751	1697.73083	143.49118	1891.27344	1734.69385	135.34727	1980.51660	1702.37219	155.42888	1988.05078	1737.91296	171.44168	2006.26831	1732.24695	154.88040	2039.71472	1558.13904	43.36058	1990.84949	1600.96875	72.58861	1899.43262	1620.81323	98.15742	2080.22559	
2331	9.708	1780.44287	132.27238	1957.79724	1721.44507	134.75487	1963.56433	1666.00220	124.12982	1975.32397	1744.62769	128.20978	1940.71729	1707.08728	145.03908	1942.02698	1731.88062	161.33220	1908.39429	1706.61682	154.32181	1892.83691	1750.96509	132.19792	1977.79443	1718.78223	153.32297	1981.28577	1751.13745	173.72046	2002.41931	1736.65576	168.32071	2036.47559	1572.88013	41.88313	1987.74902	1619.71802	73.73806	1894.72791	1639.32288	97.90247	2079.46655	
2332	9.712	1797.05298	128.96547	1955.70532	1738.02368	131.28102	1961.66809	1683.44385	119.73947	1973.54712	1761.12122	124.67023	1938.41345	1725.36487	143.53239	1942.51843	1746.84094	162.39333	1907.36462	1719.06860	164.86273	1894.71204	1767.49500	128.69048	1975.55518	1736.18628	150.59192	1975.93237	1765.18567	174.93643	1999.72974	1743.88660	181.70390	2030.04395	1587.16101	40.84481	1984.80688	1638.68787	74.55744	1890.39368	1658.09851	97.69680	2078.73828	
2333	9.717	1813.55530	125.67915	1953.63696	1754.22888	127.67451	1959.79626	1700.85522	115.19716	1971.77856	1777.42456	120.91929	1936.08936	1743.98779	141.69333	1941.33362	1761.54053	162.15392	1904.52808	1734.56653	173.35548	1895.33203	1784.21057	124.87358	1974.00464	1754.40430	147.70294	1972.41357	1779.83667	175.05313	1998.87659	1755.39185	193.17969	2023.06458	1601.38550	39.83390	1982.21765	1657.24268	74.38040	1886.86316	1676.71301	96.79560	2077.87842	
2334	9.721	1829.88818	122.40942	1951.54443	1770.08850	123.97932	1957.97693	1717.90027	110.72246	1970.10095	1793.54285	117.08733	1933.83594	1762.39087	139.51926	1938.48645	1775.76978	160.22009	1899.98596	1751.91309	178.12123	1893.21118	1800.90698	120.90742	1973.06348	1773.04297	144.96346	1970.97546	1794.79138	173.71074	1999.87073	1771.56384	200.92082	2018.65918	1615.96582	38.34269	1980.13391	1674.87549	72.69151	1884.27698	1694.88525	94.34856	2076.83228	
